<svg width="26" height="22" viewBox="0 0 26 22" fill="none" xmlns="http://www.w3.org/2000/svg">
<path fill-rule="evenodd" clip-rule="evenodd" d="M4.16146 8.6011e-07H21.8385C22.3657 -1.70213e-05 22.8205 -3.25181e-05 23.195 0.0305712C23.5904 0.0628723 23.9836 0.134188 24.362 0.326982C24.9265 0.614602 25.3854 1.07354 25.673 1.63803C25.8658 2.01641 25.9371 2.40963 25.9694 2.80497C26 3.17954 26 3.6343 26 4.16144V17.8386C26 18.3657 26 18.8205 25.9694 19.195C25.9371 19.5904 25.8658 19.9836 25.673 20.362C25.3854 20.9265 24.9265 21.3854 24.362 21.673C23.9836 21.8658 23.5904 21.9371 23.195 21.9694C22.8205 22 22.3657 22 21.8386 22H4.16144C3.6343 22 3.17954 22 2.80497 21.9694C2.40963 21.9371 2.01641 21.8658 1.63803 21.673C1.07354 21.3854 0.614602 20.9265 0.326982 20.362C0.134188 19.9836 0.0628723 19.5904 0.0305712 19.195C-3.25181e-05 18.8205 -1.70213e-05 18.3657 8.6011e-07 17.8385V4.16146C-1.70213e-05 3.63431 -3.25181e-05 3.17955 0.0305712 2.80497C0.0628723 2.40963 0.134188 2.01641 0.326982 1.63803C0.614602 1.07354 1.07354 0.614602 1.63803 0.326982C2.01641 0.134188 2.40963 0.0628723 2.80497 0.0305712C3.17955 -3.25181e-05 3.63431 -1.70213e-05 4.16146 8.6011e-07ZM2.96784 2.02393C2.69617 2.04612 2.59546 2.0838 2.54601 2.109C2.35785 2.20487 2.20487 2.35785 2.109 2.54601C2.0838 2.59546 2.04612 2.69617 2.02393 2.96784C2.00078 3.25118 2 3.62345 2 4.2V17.8C2 18.3766 2.00078 18.7488 2.02393 19.0322C2.04612 19.3038 2.0838 19.4045 2.109 19.454C2.20487 19.6422 2.35785 19.7951 2.54601 19.891C2.59546 19.9162 2.69617 19.9539 2.96784 19.9761C3.25118 19.9992 3.62345 20 4.2 20H21.8C22.3766 20 22.7488 19.9992 23.0322 19.9761C23.3038 19.9539 23.4045 19.9162 23.454 19.891C23.6422 19.7951 23.7951 19.6422 23.891 19.454C23.9162 19.4045 23.9539 19.3038 23.9761 19.0322C23.9992 18.7488 24 18.3766 24 17.8V4.2C24 3.62345 23.9992 3.25117 23.9761 2.96784C23.9539 2.69617 23.9162 2.59546 23.891 2.54601C23.7951 2.35785 23.6422 2.20487 23.454 2.109C23.4045 2.0838 23.3038 2.04612 23.0322 2.02393C22.7488 2.00078 22.3766 2 21.8 2H4.2C3.62345 2 3.25117 2.00078 2.96784 2.02393Z" fill="white"/>
<path fill-rule="evenodd" clip-rule="evenodd" d="M4.24743 4.3415C4.61111 3.92586 5.24287 3.88374 5.65851 4.24743L13 10.6712L20.3415 4.24743C20.7571 3.88374 21.3889 3.92586 21.7526 4.3415C22.1163 4.75713 22.0741 5.3889 21.6585 5.75258L13 13.3288L4.3415 5.75258C3.92586 5.3889 3.88374 4.75713 4.24743 4.3415Z" fill="white"/>
</svg>
